<svg id="Layer_1" data-name="Layer 1" xmlns="http://www.w3.org/2000/svg" xmlns:xlink="http://www.w3.org/1999/xlink" viewBox="0 0 400 200"><defs><clipPath id="clip-path"><path d="M94,162a172,172,0,0,1,344,0Z" style="fill:none"/></clipPath><pattern id="_2x3_-_Black" data-name="2x3 - Black" width="5" height="5" patternTransform="matrix(-1, 0, 0, 1, 34.23, 412)" patternUnits="userSpaceOnUse" viewBox="0 0 5 5"><rect width="5" height="5" style="fill:none"/><rect width="2" height="2"/></pattern></defs><title>haylee</title><g style="clip-path:url(#clip-path)"><rect x="77" y="1" width="323" height="171" transform="translate(477 173) rotate(180)" style="fill:#0d4f67"/><path d="M236,56.06a13,13,0,0,0-13,13v1.62H217.1a5.61,5.61,0,0,0-5.33,3.93h30.09A11.18,11.18,0,0,0,251,69.88a14.42,14.42,0,0,1,11.78-6.12H399.9V67H262.78a11.19,11.19,0,0,0-9.14,4.74,14.42,14.42,0,0,1-11.78,6.12h-43a11.2,11.2,0,0,0-8.3,3.69l-8.44,9.35a14.43,14.43,0,0,1-10.7,4.75H65.83V92.42H171.38a11.19,11.19,0,0,0,8.3-3.69l8.44-9.35a14.43,14.43,0,0,1,10.69-4.76h9.61a8.85,8.85,0,0,1,8.67-7.16h2.73A16.34,16.34,0,0,1,236,52.83H399.9v3.23Z" style="fill:#8ed0bc"/></g><rect x="129" y="185" width="271" height="3" style="fill:#545454"/><path d="M244.63,127h0a2.87,2.87,0,0,0,2.87-2.87v-.62h0a1.25,1.25,0,0,1,1.25-1.21h11.33a1.25,1.25,0,0,1,1.25,1.21h0v.62A2.87,2.87,0,0,0,264.2,127H244.63Z" style="fill:#faaf24"/><path d="M248.4,123.94a.69.69,0,0,1,.69-.69h7.3a.69.69,0,0,1,.69.69v.4a1.65,1.65,0,0,1-.48,1.16l-1.12,1.12H250l-1.12-1.12a1.65,1.65,0,0,1-.48-1.16Z"/><path d="M244.63,127h0a2.86,2.86,0,0,0,1.55-.46h16.48a2.86,2.86,0,0,0,1.55.46H244.63Z"/><circle cx="259.33" cy="124.79" r="0.84" style="fill:#fff"/><rect x="250.15" y="124.69" width="5.4" height="0.5" style="fill:#d6d6d5"/><circle cx="155.59" cy="171.08" r="13.9"/><path d="M125.49,161.29l1.84-3.9a9.32,9.32,0,0,1,6.69-5.18l39.29-7.48a37.81,37.81,0,0,0,9.13-3l22.06-10.46A45.13,45.13,0,0,1,223.83,127h67.62a45.13,45.13,0,0,1,16.68,3.2l28.2,11.22a18.53,18.53,0,0,0,5.69,1.28l10.93.68a3.4,3.4,0,0,1,3.18,3.39v3.45a7.35,7.35,0,0,0,2.15,5.25,7.48,7.48,0,0,1,2.23,5.33v6.93a6.68,6.68,0,0,1-5.63,6.6l-34.55,5.48a6.12,6.12,0,0,1-1,.08H131.9a5.22,5.22,0,0,1-5-3.73l-2-6.76A11.29,11.29,0,0,1,125.49,161.29Z" style="fill:#faaf24"/><path d="M129.22,160.64v1.68a1.24,1.24,0,0,1-1.24,1.24h-3.27a11.28,11.28,0,0,1,.79-2.27l1.22-2.59,1.06.2A1.78,1.78,0,0,1,129.22,160.64Z" style="fill:#fff"/><path d="M133.3,172.76a1.67,1.67,0,0,1-1.67,1.67H126.4l-1-3.35h6.23A1.67,1.67,0,0,1,133.3,172.76Z"/><path d="M244.5,131.31l-22.06,10.46a37.81,37.81,0,0,1-9.13,3l-2.62.5H187.26a1.17,1.17,0,0,1-.5-2.24l19-9a42.13,42.13,0,0,1,18-4.06h23.83Q246.06,130.57,244.5,131.31Z" style="fill:#ffee8c"/><path d="M186.76,143l19-9a42.13,42.13,0,0,1,16.68-4L207.2,145.24H187.26A1.17,1.17,0,0,1,186.76,143Z"/><path d="M128.29,177.82h2a3.72,3.72,0,0,0,2.63-1.09h0a3.72,3.72,0,0,1,2.63-1.09h17.62a3.72,3.72,0,0,1,2.63,1.09h0a3.72,3.72,0,0,0,2.63,1.09h30.25v-6.74a16,16,0,0,1,32,0v6.74h85v-6.74a16,16,0,0,1,32,0V177l-5.25.83-12.14,1.92a6.12,6.12,0,0,1-1,.08H131.9a5.22,5.22,0,0,1-4.1-2Z"/><path d="M343.7,146.72h12.43v3.45a7.61,7.61,0,0,0,.33,2.22h-8.31a4.23,4.23,0,0,1-3-1.24l-2.33-2.33A1.23,1.23,0,0,1,343.7,146.72Z"/><circle cx="321.72" cy="171.08" r="13.9"/><circle cx="321.72" cy="171.08" r="9.37" style="fill:#fff"/><path d="M321.72,164.64v4.79a1.66,1.66,0,0,0-1.66,1.66h-4.79A6.45,6.45,0,0,1,321.72,164.64Z" style="fill:#d6d6d5"/><path d="M323.38,171.08h4.79a6.45,6.45,0,0,1-6.45,6.45v-4.79A1.66,1.66,0,0,0,323.38,171.08Z" style="fill:#d6d6d5"/><circle cx="204.73" cy="171.08" r="13.9"/><circle cx="204.73" cy="171.08" r="9.37" style="fill:#fff"/><path d="M200.17,166.53l3.39,3.39a1.66,1.66,0,0,0,0,2.34l-3.39,3.39A6.45,6.45,0,0,1,200.17,166.53Z" style="fill:#d6d6d5"/><path d="M205.9,169.91l3.39-3.39a6.45,6.45,0,0,1,0,9.12l-3.39-3.39A1.66,1.66,0,0,0,205.9,169.91Z" style="fill:#d6d6d5"/><path d="M227.26,145.24a1.17,1.17,0,0,1-.5-2.24l19-9a42.13,42.13,0,0,1,18-4.06h25.12a42,42,0,0,1,15.57,3s7.76,3.06,15.62,6.12a3.2,3.2,0,0,1-1.16,6.18Z"/><path d="M238.1,147.65H222c.33-.14,7.92-3.72,14.44-6.8a1.17,1.17,0,0,1,1.66,1.06Z" style="fill:#faaf24"/><polygon points="224.47 164.07 301.97 164.07 301.97 174.07 224.47 174.07 224.47 164.07" style="fill:url(#_2x3_-_Black)"/><path d="M159.61,162.32v-1.68a1.78,1.78,0,0,1,1.45-1.75l15.55-3a1.25,1.25,0,0,1,1.11,2.1l-4.16,4.16a4.64,4.64,0,0,1-3.28,1.36h-9.44A1.24,1.24,0,0,1,159.61,162.32Z" style="fill:#fff"/><path d="M344,164.07h9.21a1.67,1.67,0,0,1,1.67,1.67v1.35a4,4,0,0,1-3.38,4l-7.1,1.13a2.54,2.54,0,0,1-2.93-2.5v-3.07A2.54,2.54,0,0,1,344,164.07Z" style="fill:url(#_2x3_-_Black)"/><path d="M170.08,172.49l-1,1a3.34,3.34,0,0,1-2.36,1h-9.57a1.67,1.67,0,0,1-1.67-1.67h0a1.67,1.67,0,0,1,1.67-1.67H169.5A.83.83,0,0,1,170.08,172.49Z"/><path d="M157.19,160.92l-6.59,6.59a2.54,2.54,0,0,1-1.79.74H140a2.54,2.54,0,0,1-1.79-.74l-6.59-6.59a1.13,1.13,0,0,1,.8-1.94h24A1.13,1.13,0,0,1,157.19,160.92Z"/><ellipse cx="143.16" cy="162.69" rx="2.4" ry="1.41" style="fill:#fff"/><rect x="137.05" y="172.33" width="12.23" height="4.35" rx="0.66" ry="0.66" transform="translate(286.32 349.02) rotate(-180)" style="fill:#fff"/></svg>